---
title: 群星.1995-感爱感恨·华纳国语情歌精装本【华纳】【WAV+CUE】
date: 2022-12-07 14:10:37
categories: WAV车载音乐、镜像
tags: 华语中文
---
# 群星.1995-感爱感恨·华纳国语情歌精装本【华纳】【WAV+CUE】

TITLE "感爱感恨·华纳国语情歌精装本"
FILE "群星.-.[感爱感恨·华纳国语情歌精装本](1995)[WAV].wav" WAVE
TRACK 01 AUDIO
TITLE "我的开始在这里"
PERFORMER "郭富城"
INDEX 01 00:00:00
TRACK 02 AUDIO
TITLE "你是我心底的烙印"
PERFORMER "钟镇涛&章蓉舫"
INDEX 00 04:21:23
INDEX 01 04:22:48
TRACK 03 AUDIO
TITLE "烟火"
PERFORMER "吴奇隆"
INDEX 00 08:45:06
INDEX 01 08:46:31
TRACK 04 AUDIO
TITLE "驿动的心"
PERFORMER "姜育恒"
INDEX 00 13:42:70
INDEX 01 13:44:20
TRACK 05 AUDIO
TITLE "多爱你一天"
PERFORMER "吕方"
INDEX 00 17:46:18
INDEX 01 17:47:43
TRACK 06 AUDIO
TITLE "插肩而过"
PERFORMER "苏有朋"
INDEX 00 22:00:43
INDEX 01 22:01:68
TRACK 07 AUDIO
TITLE "聚少离别多"
PERFORMER "王杰"
INDEX 00 26:39:50
INDEX 01 26:41:00
TRACK 08 AUDIO
TITLE "爱上你的一切"
PERFORMER "张雨生"
INDEX 00 30:35:45
INDEX 01 30:36:70
TRACK 09 AUDIO
TITLE "我们有没有爱过"
PERFORMER "任洁玲"
INDEX 00 34:54:60
INDEX 01 34:56:10
TRACK 10 AUDIO
TITLE "无怨无尤"
PERFORMER "关德辉"
INDEX 00 40:17:15
INDEX 01 40:18:40
TRACK 11 AUDIO
TITLE "哭砂"
PERFORMER "黄莺莺"
INDEX 00 45:15:33
INDEX 01 45:16:58
TRACK 12 AUDIO
TITLE "女人的"
PERFORMER "叶倩文"
INDEX 00 49:51:36
INDEX 01 49:52:61
TRACK 13 AUDIO
TITLE "爱上一个不回家的人"
PERFORMER "林忆莲"
INDEX 00 54:16:44
INDEX 01 54:17:69
TRACK 14 AUDIO
TITLE "痴情不是一种罪过"
PERFORMER "潘越云"
INDEX 00 59:15:47
INDEX 01 59:16:72
TRACK 15 AUDIO
TITLE "天天等天天问"
PERFORMER "姜育恒&叶欢"
INDEX 00 64:33:26
INDEX 01 64:34:51
群星.1995 - 感爱感恨·华纳国语情歌精装本【华纳】【WAV+CUE】.rar: https://url27.ctfile.com/f/9388027-741356085-f9925c?p=559675
(访问密码: 559675)
原文：[链接](https://blog.sina.com.cn/s/blog_1647c7e76010310hp.html)